<?xml version="1.0" encoding="utf-8"?>
<!-- Generator: Adobe Illustrator 27.5.0, SVG Export Plug-In . SVG Version: 6.00 Build 0)  -->
<svg version="1.1" xmlns="http://www.w3.org/2000/svg" xmlns:xlink="http://www.w3.org/1999/xlink" x="0px" y="0px"
	 viewBox="0 0 500 500" style="enable-background:new 0 0 500 500;" xml:space="preserve">
<g id="Background_Simple">
	<g>
		<path style="fill:#92E3A9;" d="M472.732,202.676c-11.686-24.133-25.001-48.08-38.817-70.477
			c-21.401-34.692-49.42-67.213-86.089-87.727C262.761-3.114,164.774,15.507,100.168,70.335S88.323,195.508,76.479,248.266
			c-11.844,52.759-49.532,50.69-59.223,127.242c-9.691,76.552,100.14,122.069,185.205,102.414
			c85.065-19.655,86.142-54.828,158.286-56.897c72.144-2.069,115.215-23.793,130.29-104.485c5.297-28.352,5.856-59.17-5.71-86.254
			C481.407,221.107,477.188,211.878,472.732,202.676z"/>
		<path style="opacity:0.7;fill:#FFFFFF;" d="M472.732,202.676c-11.686-24.133-25.001-48.08-38.817-70.477
			c-21.401-34.692-49.42-67.213-86.089-87.727C262.761-3.114,164.774,15.507,100.168,70.335S88.323,195.508,76.479,248.266
			c-11.844,52.759-49.532,50.69-59.223,127.242c-9.691,76.552,100.14,122.069,185.205,102.414
			c85.065-19.655,86.142-54.828,158.286-56.897c72.144-2.069,115.215-23.793,130.29-104.485c5.297-28.352,5.856-59.17-5.71-86.254
			C481.407,221.107,477.188,211.878,472.732,202.676z"/>
	</g>
</g>
<g id="Plant_1_">
	<g>
		<g>
			<g>
				<path style="fill:#263238;" d="M442.164,269.343l0.002-0.006c0.019-0.048-0.004-0.102-0.051-0.122
					c-0.048-0.021-0.104,0.001-0.125,0.05c-2.885,6.663-4.914,13.658-6.608,20.714c-1.634,7.075-2.818,14.252-3.646,21.474
					l-0.516,5.428c-0.08,0.905-0.178,1.81-0.243,2.716l-0.148,2.723c-0.078,1.816-0.19,3.633-0.241,5.45l0.049,5.455l0.061,2.726
					c0.04,0.908,0.106,1.815,0.167,2.722c0.138,1.813,0.248,3.627,0.414,5.435c0.348,3.616,0.891,7.213,1.451,10.794
					c0.007,0.046,0.047,0.081,0.095,0.081c0.053,0,0.095-0.043,0.095-0.096v-0.005c-0.01-1.818-0.086-3.626-0.127-5.436
					c-0.052-1.808-0.21-3.607-0.184-5.416c0.008-1.808-0.039-3.611-0.059-5.414l-0.05-2.703l0.048-2.704l0.025-5.405l0.146-5.402
					l0.056-2.703c0.035-0.901,0.102-1.799,0.151-2.699l0.332-5.399c0.632-7.184,1.619-14.342,3.058-21.418
					C437.751,283.114,439.527,276.073,442.164,269.343z"/>
				<path style="fill:#263238;" d="M442.939,297.606c0.014-0.048-0.012-0.103-0.06-0.119c-0.05-0.017-0.104,0.009-0.121,0.059
					c-1.555,4.491-2.797,9.085-3.848,13.727c-1.003,4.65-1.791,9.361-2.271,14.108c-0.48,4.73-1.009,9.465-1.074,14.221
					c-0.073,4.753,0.003,9.513,0.505,14.261c0.005,0.044,0.04,0.081,0.085,0.085c0.053,0.006,0.1-0.033,0.105-0.085
					c0.549-4.735,0.884-9.458,1.212-14.18c0.335-4.72,0.38-9.453,0.688-14.174c0.285-4.707,0.876-9.395,1.686-14.052
					C440.641,306.798,441.632,302.157,442.939,297.606z"/>
				<path style="fill:#263238;" d="M458.608,307.548c-0.028-0.044-0.087-0.058-0.132-0.03c-3.922,2.483-7.42,5.61-10.477,9.134
					c-1.503,1.788-2.899,3.66-4.096,5.696l-0.842,1.589l-0.659,1.65c-0.237,0.547-0.404,1.111-0.575,1.673
					c-0.169,0.563-0.359,1.124-0.511,1.691c-1.177,4.541-1.956,9.169-2.168,13.821c-0.189,4.649-0.101,9.305,0.52,13.921
					c0.007,0.044,0.043,0.08,0.088,0.083c0.053,0.004,0.099-0.036,0.103-0.089l1.194-13.78c0.476-4.555,0.768-9.138,1.746-13.587
					c0.124-0.554,0.284-1.096,0.424-1.645c0.142-0.549,0.28-1.1,0.483-1.623l0.559-1.593l0.72-1.504
					c1.061-1.991,2.359-3.895,3.754-5.7c2.798-3.611,6.09-6.903,9.838-9.575l0.005-0.004
					C458.623,307.647,458.635,307.591,458.608,307.548z"/>
				<path style="fill:#263238;" d="M451.024,325.252c-2.135,1.379-3.564,3.547-4.764,5.727c-1.145,2.23-2.047,4.593-2.67,7.017
					c-0.187,0.6-0.335,1.208-0.466,1.82l-0.432,1.832c-0.22,1.23-0.393,2.474-0.463,3.721c-0.016,1.25-0.052,2.499,0.032,3.745
					c0.104,1.246,0.245,2.489,0.491,3.721c0.009,0.035,0.038,0.069,0.076,0.076c0.053,0.011,0.104-0.024,0.115-0.076
					c0.302-1.229,0.5-2.448,0.66-3.663c0.194-1.213,0.382-2.418,0.527-3.625c0.177-1.201,0.336-2.4,0.43-3.61
					c0.168-1.194,0.256-2.415,0.518-3.595c0.419-2.389,1.11-4.721,2.043-6.951c0.929-2.212,2.14-4.416,4-5.974l0.014-0.012
					c0.036-0.03,0.045-0.083,0.019-0.124C451.127,325.236,451.068,325.223,451.024,325.252z"/>
				<path style="fill:#263238;" d="M429.05,339.054c-0.515-6.117-1.524-12.173-2.478-18.226c-0.956-6.054-2.011-12.089-3.118-18.114
					c-1.147-6.017-2.345-12.023-3.643-18.008c-0.011-0.05-0.06-0.083-0.11-0.074c-0.052,0.01-0.086,0.059-0.077,0.111
					c1.047,6.03,1.994,12.077,2.889,18.13c0.918,6.048,1.782,12.104,2.548,18.171c0.748,6.069,1.33,12.152,2.091,18.211l2.238,18.21
					c0.005,0.046,0.043,0.082,0.091,0.085c0.053,0.003,0.097-0.038,0.1-0.091c0.07-1.534,0.072-3.069,0.109-4.607
					c0.014-1.537-0.062-3.068-0.09-4.605C429.542,345.172,429.28,342.115,429.05,339.054z"/>
				<path style="fill:#263238;" d="M425.382,338.966c-0.327-2.423-0.772-4.832-1.235-7.233l-0.859-3.571
					c-0.281-1.191-0.548-2.384-0.897-3.559c-1.221-4.739-2.78-9.397-4.675-13.911l-0.734-1.683l-0.815-1.647
					c-0.518-1.109-1.145-2.165-1.74-3.234c-1.279-2.083-2.606-4.165-4.415-5.854c-0.037-0.034-0.094-0.034-0.131,0.001
					c-0.038,0.036-0.039,0.097-0.002,0.135l0.009,0.01c1.672,1.733,2.891,3.873,4.039,5.987c0.532,1.088,1.094,2.157,1.549,3.28
					l0.718,1.665l0.637,1.7c1.695,4.529,3.054,9.183,4.076,13.915c0.557,2.353,0.927,4.752,1.383,7.125l0.573,3.585
					c0.207,1.192,0.462,2.376,0.63,3.575c0.382,2.392,0.822,4.777,1.239,7.17c0.371,2.4,0.809,4.795,1.315,7.192
					c0.009,0.043,0.048,0.079,0.094,0.079c0.053,0,0.096-0.042,0.096-0.096c0.011-2.444-0.046-4.889-0.171-7.331
					C425.924,343.827,425.636,341.399,425.382,338.966z"/>
				<path style="fill:#263238;" d="M420.32,339.278c-1.134-3.21-2.445-6.352-3.874-9.432c-1.467-3.064-3.05-6.069-4.872-8.932
					c-0.028-0.04-0.086-0.057-0.129-0.031c-0.046,0.027-0.06,0.085-0.034,0.131c1.592,2.973,2.938,6.075,4.158,9.211
					c1.242,3.128,2.361,6.303,3.298,9.528c0.957,3.222,1.642,6.506,2.499,9.742c0.901,3.234,1.63,6.501,2.625,9.776
					c0.012,0.039,0.049,0.07,0.092,0.071c0.053,0.001,0.097-0.042,0.098-0.095c0.048-3.417-0.287-6.832-0.952-10.177
					C422.629,345.706,421.446,342.485,420.32,339.278z"/>
				<path style="fill:#263238;" d="M420.109,349.969c-0.58-2.01-1.569-3.882-2.693-5.647c-1.104-1.773-2.384-3.45-3.919-4.87
					c-0.791-0.685-1.599-1.344-2.493-1.88c-0.88-0.55-1.815-1.015-2.828-1.278c-0.044-0.012-0.091,0.01-0.111,0.053
					c-0.021,0.048,0,0.104,0.048,0.126l0.011,0.005c1.833,0.815,3.382,2.165,4.691,3.644c1.327,1.481,2.385,3.179,3.268,4.948
					c0.928,1.757,1.408,3.699,2.215,5.509c0.356,0.928,0.71,1.862,1.122,2.789c0.349,0.946,0.737,1.888,1.23,2.826l0.003,0.005
					c0.016,0.03,0.047,0.051,0.083,0.052c0.054,0.002,0.1-0.04,0.102-0.094c0.044-1.047-0.018-2.088-0.117-3.127
					C420.572,352.004,420.355,350.984,420.109,349.969z"/>
			</g>
			<path style="fill:#92E3A9;" d="M420.488,293.463c0,0-10.024-2.313-12.337-13.108c-2.313-10.795,5.14-6.168-1.542-23.132
				c-6.683-16.963-5.14-20.818-2.827-25.702c2.313-4.883,3.598-3.341,5.654,3.084c2.056,6.425,9.51,16.449,12.337,35.212
				C424.6,288.58,420.488,293.463,420.488,293.463z"/>
			<path style="fill:#92E3A9;" d="M440.278,275.215c0,0-6.683-2.313-6.94-14.907c-0.257-12.594,4.884-10.024,5.655-25.702
				c0.771-15.678,1.799-26.73,4.626-26.987c2.827-0.257,10.281,7.711,12.851,25.188c2.57,17.477-3.341,29.043-8.482,34.183
				C442.848,272.131,440.278,275.215,440.278,275.215z"/>
			<path style="fill:#92E3A9;" d="M416.889,308.628c0,0-1.542-9.253-4.626-13.622c-3.084-4.37-9.767-8.225-14.136-16.706
				c-4.369-8.482-9.253-12.594-8.996-0.514c0.257,12.08,5.654,18.249,12.337,22.361
				C408.151,304.258,416.889,308.628,416.889,308.628z"/>
			<path style="fill:#92E3A9;" d="M414.062,324.563c0,0-6.168-11.823-15.164-20.561c-8.996-8.739-16.192-13.108-13.622-8.739
				c2.57,4.369,5.655,4.112,10.024,11.823c4.369,7.711,3.084,13.365,9.253,17.734C410.721,329.189,414.062,324.563,414.062,324.563z
				"/>
			<path style="fill:#92E3A9;" d="M413.291,339.727c-0.257-0.771-0.514-6.425-9.253-11.052c-8.739-4.626-16.963-2.827-15.935-0.514
				c1.028,2.313,6.425,6.169,11.823,8.482C405.324,338.956,413.291,339.727,413.291,339.727z"/>
			<path style="fill:#92E3A9;" d="M439.764,309.142c0,0-3.855-4.883-1.799-15.164c2.056-10.281,6.682-7.711,11.823-13.108
				c5.14-5.397,4.112-6.169,9.253-11.823c5.14-5.654,9.767-8.739,11.823-6.426c2.056,2.313-1.028,9.51-4.112,13.622
				c-3.084,4.112-7.967,6.169-10.281,11.309c-2.313,5.141-1.285,13.365-7.197,17.22
				C443.363,308.628,439.764,309.142,439.764,309.142z"/>
			<path style="fill:#92E3A9;" d="M452.615,311.969c0,0,9.253-10.538,15.935-18.248c6.683-7.711,9.253-13.622,9.51-8.482
				c0.257,5.14,2.313,9.253-3.084,15.935C469.578,307.857,452.615,311.969,452.615,311.969z"/>
			<path style="fill:#92E3A9;" d="M447.732,328.932c0,0-0.257-4.112,14.393-13.622c14.65-9.51,20.819-11.309,19.276-7.453
				c-1.542,3.855-7.967,7.711-14.907,14.65C459.555,329.446,447.732,328.932,447.732,328.932z"/>
			<path style="fill:none;stroke:#263238;stroke-linecap:round;stroke-linejoin:round;stroke-miterlimit:10;" d="M421.099,292.368
				c0,0-3.439-18.438-7.037-31.546c-3.598-13.108-5.911-21.076-5.911-21.076"/>
			<path style="fill:none;stroke:#263238;stroke-linecap:round;stroke-linejoin:round;stroke-miterlimit:10;" d="M439.686,275.409
				c0,0,6.246-19.985,8.303-32.064c2.056-12.08-0.257-21.076-1.285-26.473"/>
			<path style="fill:none;stroke:#263238;stroke-linecap:round;stroke-linejoin:round;stroke-miterlimit:10;" d="M416.079,308.242
				c0,0-3.816-6.811-9.47-13.493c-5.654-6.683-10.024-10.281-12.594-16.706"/>
			<path style="fill:none;stroke:#263238;stroke-linecap:round;stroke-linejoin:round;stroke-miterlimit:10;" d="M439.764,309.142
				c0,0,2.056-12.337,6.94-18.763c4.883-6.425,14.65-16.449,18.505-22.875"/>
			<path style="fill:none;stroke:#263238;stroke-linecap:round;stroke-linejoin:round;stroke-miterlimit:10;" d="M412.687,339.446
				c0,0-8.649-5.631-14.817-8.715"/>
		</g>
		<g>
			<g>
				<path style="fill:#263238;stroke:#263238;stroke-linecap:round;stroke-linejoin:round;stroke-miterlimit:10;" d="
					M462.208,391.252c-0.578-15.596-17.907-25.994-17.907-25.994h-10.963h-4.633h-10.963c0,0-17.329,10.398-17.907,25.994
					c-0.578,15.596,19.64,72.783,19.64,72.783h9.23h4.633h9.23C442.568,464.034,462.786,406.848,462.208,391.252z"/>
				<polygon style="fill:#263238;stroke:#263238;stroke-linecap:round;stroke-linejoin:round;stroke-miterlimit:10;" points="
					447.721,349.923 413.831,349.923 417.742,365.258 443.811,365.258 				"/>
			</g>
		</g>
	</g>
</g>
<g id="Books">
	<g>
		<path style="fill:#92E3A9;stroke:#263238;stroke-miterlimit:10;" d="M272.029,459.381v-53.62H108.88v-4.777h239.998
			c17.476,0,31.643,14.167,31.643,31.643l0,0c0,17.476-14.167,31.644-31.643,31.644H108.88v-4.89H272.029z"/>
		<path style="fill:#FFFFFF;stroke:#263238;stroke-linecap:round;stroke-linejoin:round;stroke-miterlimit:10;" d="M344.557,432.627
			c0-17.476-14.167-31.643-31.643-31.643h8.987c17.476,0,31.643,14.167,31.643,31.643c0,17.476-14.167,31.644-31.643,31.644h-8.987
			C330.39,464.271,344.557,450.103,344.557,432.627z"/>
		<path style="fill:#FFFFFF;stroke:#263238;stroke-linecap:round;stroke-linejoin:round;stroke-miterlimit:10;" d="M115.455,458.517
			c10.274-31.232,0-52.602,0-52.602h154.93c14.753,0,26.712,11.959,26.712,26.712l0,0c0,14.753-11.959,26.712-26.712,26.712H115.167
			C115.264,459.067,115.362,458.802,115.455,458.517z"/>
		
			<line style="fill:none;stroke:#263238;stroke-linecap:round;stroke-linejoin:round;stroke-miterlimit:10;" x1="295.042" y1="422.353" x2="247.783" y2="422.353"/>
		
			<line style="fill:none;stroke:#263238;stroke-linecap:round;stroke-linejoin:round;stroke-miterlimit:10;" x1="297.097" y1="432.627" x2="277.371" y2="432.627"/>
		
			<line style="fill:none;stroke:#263238;stroke-linecap:round;stroke-linejoin:round;stroke-miterlimit:10;" x1="293.398" y1="444.956" x2="228.057" y2="444.956"/>
		
			<line style="fill:none;stroke:#263238;stroke-linecap:round;stroke-linejoin:round;stroke-miterlimit:10;" x1="268.33" y1="419.066" x2="232.166" y2="419.066"/>
		
			<line style="fill:none;stroke:#263238;stroke-linecap:round;stroke-linejoin:round;stroke-miterlimit:10;" x1="273.673" y1="432.627" x2="265.043" y2="432.627"/>
		
			<line style="fill:none;stroke:#263238;stroke-linecap:round;stroke-linejoin:round;stroke-miterlimit:10;" x1="221.481" y1="444.956" x2="214.906" y2="444.956"/>
		
			<line style="fill:none;stroke:#263238;stroke-linecap:round;stroke-linejoin:round;stroke-miterlimit:10;" x1="118.743" y1="417.011" x2="132.715" y2="417.011"/>
		
			<line style="fill:none;stroke:#263238;stroke-linecap:round;stroke-linejoin:round;stroke-miterlimit:10;" x1="139.701" y1="426.052" x2="123.674" y2="426.052"/>
		
			<line style="fill:none;stroke:#263238;stroke-linecap:round;stroke-linejoin:round;stroke-miterlimit:10;" x1="152.03" y1="440.846" x2="158.194" y2="440.846"/>
		
			<line style="fill:none;stroke:#263238;stroke-linecap:round;stroke-linejoin:round;stroke-miterlimit:10;" x1="121.619" y1="440.846" x2="145.866" y2="440.846"/>
	</g>
	<g>
		<path style="fill:#999999;stroke:#263238;stroke-linecap:round;stroke-linejoin:round;stroke-miterlimit:10;" d="M211.112,334.025
			v-53.62h163.149v-4.777H134.264c-17.476,0-31.643,14.167-31.643,31.643l0,0c0,17.476,14.167,31.643,31.643,31.643h239.998v-4.89
			H211.112z"/>
		<path style="fill:#FFFFFF;stroke:#263238;stroke-linecap:round;stroke-linejoin:round;stroke-miterlimit:10;" d="M129,307.271
			c0-17.476,14.167-31.643,31.643-31.643h-8.986c-17.476,0-31.643,14.167-31.643,31.643c0,17.476,14.167,31.643,31.643,31.643h8.986
			C143.167,338.915,129,324.747,129,307.271z"/>
		<path style="fill:#FFFFFF;stroke:#263238;stroke-linecap:round;stroke-linejoin:round;stroke-miterlimit:10;" d="M168.135,307.271
			c0-17.476,14.167-31.643,31.643-31.643h-8.987c-17.476,0-31.643,14.167-31.643,31.643c0,17.476,14.167,31.643,31.643,31.643h8.987
			C182.302,338.915,168.135,324.747,168.135,307.271z"/>
		<path style="fill:#FFFFFF;stroke:#263238;stroke-linecap:round;stroke-linejoin:round;stroke-miterlimit:10;" d="M367.686,333.161
			c-10.274-31.233,0-52.602,0-52.602h-154.93c-14.753,0-26.712,11.959-26.712,26.712l0,0c0,14.753,11.959,26.712,26.712,26.712
			h155.218C367.877,333.711,367.779,333.446,367.686,333.161z"/>
		
			<line style="fill:none;stroke:#263238;stroke-linecap:round;stroke-linejoin:round;stroke-miterlimit:10;" x1="188.099" y1="296.997" x2="235.358" y2="296.997"/>
		
			<line style="fill:none;stroke:#263238;stroke-linecap:round;stroke-linejoin:round;stroke-miterlimit:10;" x1="186.044" y1="307.271" x2="205.77" y2="307.271"/>
		
			<line style="fill:none;stroke:#263238;stroke-linecap:round;stroke-linejoin:round;stroke-miterlimit:10;" x1="189.742" y1="319.6" x2="255.084" y2="319.6"/>
		
			<line style="fill:none;stroke:#263238;stroke-linecap:round;stroke-linejoin:round;stroke-miterlimit:10;" x1="214.811" y1="293.71" x2="250.975" y2="293.71"/>
		
			<line style="fill:none;stroke:#263238;stroke-linecap:round;stroke-linejoin:round;stroke-miterlimit:10;" x1="209.468" y1="307.271" x2="218.098" y2="307.271"/>
		
			<line style="fill:none;stroke:#263238;stroke-linecap:round;stroke-linejoin:round;stroke-miterlimit:10;" x1="261.659" y1="319.6" x2="268.235" y2="319.6"/>
		
			<line style="fill:none;stroke:#263238;stroke-linecap:round;stroke-linejoin:round;stroke-miterlimit:10;" x1="364.398" y1="291.655" x2="350.426" y2="291.655"/>
		
			<line style="fill:none;stroke:#263238;stroke-linecap:round;stroke-linejoin:round;stroke-miterlimit:10;" x1="343.439" y1="300.696" x2="359.467" y2="300.696"/>
		
			<line style="fill:none;stroke:#263238;stroke-linecap:round;stroke-linejoin:round;stroke-miterlimit:10;" x1="331.111" y1="315.49" x2="324.947" y2="315.49"/>
		
			<line style="fill:none;stroke:#263238;stroke-linecap:round;stroke-linejoin:round;stroke-miterlimit:10;" x1="361.521" y1="315.49" x2="337.275" y2="315.49"/>
	</g>
	<g>
		<path style="fill:#263238;stroke:#263238;stroke-miterlimit:10;" d="M223.696,396.945v-53.62h163.149v-4.777H146.848
			c-17.476,0-31.643,14.167-31.643,31.644l0,0c0,17.476,14.167,31.643,31.643,31.643h239.998v-4.89H223.696z"/>
		<path style="fill:#FFFFFF;stroke:#263238;stroke-linecap:round;stroke-linejoin:round;stroke-miterlimit:10;" d="M141.584,370.191
			c0-17.476,14.167-31.644,31.643-31.644h-8.986c-17.476,0-31.643,14.167-31.643,31.644c0,17.476,14.167,31.643,31.643,31.643h8.986
			C155.751,401.835,141.584,387.668,141.584,370.191z"/>
		<path style="fill:#FFFFFF;stroke:#263238;stroke-linecap:round;stroke-linejoin:round;stroke-miterlimit:10;" d="M180.719,370.191
			c0-17.476,14.167-31.644,31.643-31.644h-8.987c-17.476,0-31.643,14.167-31.643,31.644c0,17.476,14.167,31.643,31.643,31.643h8.987
			C194.886,401.835,180.719,387.668,180.719,370.191z"/>
		<path style="fill:#FFFFFF;stroke:#263238;stroke-linecap:round;stroke-linejoin:round;stroke-miterlimit:10;" d="M380.27,396.081
			c-10.274-31.232,0-52.602,0-52.602H225.34c-14.753,0-26.712,11.959-26.712,26.712l0,0c0,14.753,11.959,26.712,26.712,26.712
			h155.218C380.461,396.631,380.363,396.366,380.27,396.081z"/>
		
			<line style="fill:none;stroke:#263238;stroke-linecap:round;stroke-linejoin:round;stroke-miterlimit:10;" x1="200.683" y1="359.917" x2="247.942" y2="359.917"/>
		
			<line style="fill:none;stroke:#263238;stroke-linecap:round;stroke-linejoin:round;stroke-miterlimit:10;" x1="198.628" y1="370.191" x2="218.354" y2="370.191"/>
		
			<line style="fill:none;stroke:#263238;stroke-linecap:round;stroke-linejoin:round;stroke-miterlimit:10;" x1="202.326" y1="382.52" x2="267.668" y2="382.52"/>
		
			<line style="fill:none;stroke:#263238;stroke-linecap:round;stroke-linejoin:round;stroke-miterlimit:10;" x1="227.395" y1="356.63" x2="263.559" y2="356.63"/>
		
			<line style="fill:none;stroke:#263238;stroke-linecap:round;stroke-linejoin:round;stroke-miterlimit:10;" x1="222.052" y1="370.191" x2="230.682" y2="370.191"/>
		
			<line style="fill:none;stroke:#263238;stroke-linecap:round;stroke-linejoin:round;stroke-miterlimit:10;" x1="274.243" y1="382.52" x2="280.819" y2="382.52"/>
		
			<line style="fill:none;stroke:#263238;stroke-linecap:round;stroke-linejoin:round;stroke-miterlimit:10;" x1="376.982" y1="354.575" x2="363.01" y2="354.575"/>
		
			<line style="fill:none;stroke:#263238;stroke-linecap:round;stroke-linejoin:round;stroke-miterlimit:10;" x1="356.023" y1="363.616" x2="372.051" y2="363.616"/>
		
			<line style="fill:none;stroke:#263238;stroke-linecap:round;stroke-linejoin:round;stroke-miterlimit:10;" x1="343.695" y1="378.41" x2="337.53" y2="378.41"/>
		
			<line style="fill:none;stroke:#263238;stroke-linecap:round;stroke-linejoin:round;stroke-miterlimit:10;" x1="374.105" y1="378.41" x2="349.859" y2="378.41"/>
	</g>
</g>
<g id="Icons_2">
	<g>
		
			<ellipse transform="matrix(0.9727 -0.2319 0.2319 0.9727 -29.0612 99.2536)" style="fill:none;stroke:#263238;stroke-linecap:round;stroke-linejoin:round;stroke-miterlimit:10;" cx="407.662" cy="173.244" rx="21.511" ry="21.511"/>
		<polygon style="fill:none;stroke:#263238;stroke-linecap:round;stroke-linejoin:round;stroke-miterlimit:10;" points="
			423.539,173.244 399.048,159.104 399.048,187.384 		"/>
	</g>
	<g>
		
			<ellipse transform="matrix(0.3827 -0.9239 0.9239 0.3827 -281.5358 296.6783)" style="fill:none;stroke:#263238;stroke-linecap:round;stroke-linejoin:round;stroke-miterlimit:10;" cx="81.237" cy="359.013" rx="14.544" ry="14.544"/>
		<polygon style="fill:none;stroke:#263238;stroke-linecap:round;stroke-linejoin:round;stroke-miterlimit:10;" points="
			91.972,359.013 75.413,349.453 75.413,368.574 		"/>
	</g>
	<g>
		
			<rect x="82.886" y="181.429" style="fill:none;stroke:#263238;stroke-linecap:round;stroke-linejoin:round;stroke-miterlimit:10;" width="12.275" height="40.221"/>
		
			<rect x="104.368" y="181.429" style="fill:none;stroke:#263238;stroke-linecap:round;stroke-linejoin:round;stroke-miterlimit:10;" width="12.275" height="40.221"/>
	</g>
	
		<rect x="155.754" y="42.092" style="fill:none;stroke:#263238;stroke-linecap:round;stroke-linejoin:round;stroke-miterlimit:10;" width="28.011" height="28.011"/>
	
		<rect x="327.613" y="174.247" style="fill:none;stroke:#263238;stroke-linecap:round;stroke-linejoin:round;stroke-miterlimit:10;" width="16.999" height="16.999"/>
	
		<rect x="48.975" y="246.309" style="fill:none;stroke:#263238;stroke-linecap:round;stroke-linejoin:round;stroke-miterlimit:10;" width="16.999" height="16.999"/>
</g>
<g id="Icon_1">
	<g>
		
			<circle style="fill:#FFFFFF;stroke:#263238;stroke-linecap:round;stroke-linejoin:round;stroke-miterlimit:10;" cx="359.048" cy="87.664" r="34.092"/>
		<g>
			<g>
				<polygon style="fill:#263238;" points="341.985,81.268 341.985,94.482 358.766,103.827 358.766,71.923 				"/>
				<rect x="332.603" y="81.497" style="fill:#263238;" width="8.39" height="12.64"/>
			</g>
			<g>
				<path style="fill:none;stroke:#263238;stroke-width:2;stroke-linecap:round;stroke-linejoin:round;stroke-miterlimit:10;" d="
					M372.349,99.435c3.156-3.37,5.089-7.901,5.089-12.883c0-5.048-1.984-9.632-5.215-13.016"/>
				<path style="fill:none;stroke:#263238;stroke-width:2;stroke-linecap:round;stroke-linejoin:round;stroke-miterlimit:10;" d="
					M368.488,96.753c2.661-2.583,4.315-6.199,4.315-10.201c0-4.161-1.788-7.905-4.638-10.505"/>
				<path style="fill:none;stroke:#263238;stroke-width:2;stroke-linecap:round;stroke-linejoin:round;stroke-miterlimit:10;" d="
					M364.616,93.184c1.802-1.639,2.934-4.003,2.934-6.631c0-2.796-1.28-5.293-3.287-6.936"/>
			</g>
		</g>
		
			<line style="fill:#FFFFFF;stroke:#263238;stroke-linecap:round;stroke-linejoin:round;stroke-miterlimit:10;" x1="326.883" y1="99.789" x2="311.332" y2="105.172"/>
	</g>
</g>
<g id="Character">
	<g>
		<path style="fill:#263238;stroke:#263238;stroke-miterlimit:10;" d="M222.151,226.83c0,0-0.266,0.279-0.721,0.757
			c-2.555,2.682-11.068,11.615-11.81,12.357c-0.874,0.874-3.788,3.206-3.788,3.206s-8.742,6.411-7.868,8.16
			c0.874,1.748,23.021,17.485,39.049,20.69c16.027,3.206,53.619,2.04,60.904-1.748c7.285-3.788,16.319-16.027,20.107-23.021
			c3.788-6.994-4.662-12.531-9.908-14.57c-5.245-2.04-18.359-8.742-20.399-10.491L222.151,226.83z"/>
		<path style="fill:#92E3A9;stroke:#263238;stroke-miterlimit:10;" d="M243.709,126.039c0,0-32.595,1.84-37.063,11.829
			s6.046,52.572,6.834,62.298c0.788,9.726,1.577,27.6,13.143,32.595c11.566,4.994,37.063,7.36,47.841,3.154
			c10.777-4.206,16.034-8.674,16.034-12.354c0-3.68-4.731-14.457-4.731-26.286c0-11.829,13.932-36.012,13.669-50.995
			c-0.263-14.983-7.36-17.612-14.195-19.452C278.406,124.988,243.709,126.039,243.709,126.039z"/>
		<g>
			<path style="fill:none;stroke:#263238;stroke-linecap:round;stroke-linejoin:round;stroke-miterlimit:10;" d="M245.942,207.634
				c7.209,6.249,16.892,13.841,23.79,16.189"/>
			<path style="fill:none;stroke:#263238;stroke-linecap:round;stroke-linejoin:round;stroke-miterlimit:10;" d="M236.086,198.589
				c0,0,3.434,3.392,8.344,7.723"/>
			<path style="fill:none;stroke:#263238;stroke-linecap:round;stroke-linejoin:round;stroke-miterlimit:10;" d="M267.989,227.604
				c1.66,0.532,3.385,0.951,5.16,1.214"/>
			<path style="fill:none;stroke:#263238;stroke-linecap:round;stroke-linejoin:round;stroke-miterlimit:10;" d="M247.914,214.623
				c0,0,6.916,7.575,16.839,11.777"/>
		</g>
		<g>
			<path style="fill:#263238;stroke:#263238;stroke-miterlimit:10;" d="M258.869,263.547c0,0-11.124-4.116-12.531-4.371
				c-6.712-1.216-20.301-4.553-32.346-15.153c-14.57-12.822-41.963-31.181-51.871-32.929c-9.908-1.749-18.067,7.285-15.445,18.941
				c2.623,11.656,15.445,25.935,28.267,33.512c12.822,7.577,75.766,12.531,83.926,13.113c8.159,0.583,33.221,4.954,37.883,2.04
				c4.662-2.914,6.411-11.948,2.914-14.862c-3.497-2.914-26.518,1.166-31.472,0.583C263.24,263.839,258.869,263.547,258.869,263.547
				z"/>
			<path style="fill:#FFFFFF;stroke:#263238;stroke-miterlimit:10;" d="M268.194,264.421c-3.289-0.387-6.313-0.645-7.98-0.775
				l-2.522,12.927c0.465,0.035,0.866,0.064,1.177,0.086c8.159,0.583,33.221,4.954,37.883,2.04
				c4.663-2.914,6.411-11.948,2.914-14.862C296.169,260.924,273.148,265.004,268.194,264.421z"/>
		</g>
		<g>
			<path style="fill:#FFFFFF;stroke:#263238;stroke-miterlimit:10;" d="M217.197,262.964c0,0,36.717-14.279,55.951-22.438
				c19.233-8.16,39.34-20.399,54.493-20.399c15.153,0,7.285,19.233,2.914,27.393c-4.371,8.159-23.021,12.822-37.009,15.736
				c-13.988,2.914-50.414,7.577-70.812,11.074c-20.399,3.497-33.803,0.874-41.671,0c-7.868-0.874-13.113-1.166-14.57-6.411
				c-1.457-5.245,5.828-10.491,13.113-11.656c7.285-1.166,16.61,4.663,21.273,5.828
				C205.541,263.256,217.197,262.964,217.197,262.964z"/>
			<g>
				<path style="fill:#263238;stroke:#263238;stroke-miterlimit:10;" d="M327.641,220.127c-15.153,0-35.26,12.239-54.493,20.399
					c-18.576,7.881-53.457,21.468-55.82,22.388c-0.265,3.336,0.248,7.825,3.679,11.686c0.577-0.091,1.139-0.169,1.728-0.27
					c20.398-3.497,56.825-8.159,70.812-11.073c13.987-2.914,32.638-7.577,37.009-15.736
					C334.926,239.36,342.794,220.127,327.641,220.127z"/>
				<path style="fill:none;stroke:#263238;stroke-linecap:round;stroke-linejoin:round;stroke-miterlimit:10;" d="M212.074,262.985
					c-3.73-0.045-8.571-0.239-11.195-0.895c-4.663-1.166-13.988-6.994-21.273-5.828c-7.285,1.166-14.57,6.411-13.113,11.656
					c1.457,5.245,6.702,5.537,14.57,6.411c6.801,0.756,17.751,2.81,33.767,1.096c-1.063-1.12-2.112-2.683-2.878-4.885
					C210.799,267.225,211.287,264.697,212.074,262.985z"/>
			</g>
		</g>
		<g>
			<path style="fill:#92E3A9;stroke:#263238;stroke-miterlimit:10;" d="M213.742,132.348c0,0-8.674-0.526-11.829,13.669
				c-3.154,14.195-0.263,54.149,2.629,63.612c2.891,9.463,5.257,16.56,9.463,22.606c4.206,6.046,18.663,20.24,18.663,20.24
				s3.93,6.71,4.932,7.998c1.002,1.288,2.577,4.294,4.724,6.155c2.147,1.861,3.579,2.72,3.579,2.72s4.008,2.434,5.153,1.575
				c1.145-0.859-1.002-2.147-1.002-2.147l-4.581-8.016l1.575-0.143l6.012,6.871c0,0,1.861,2.004,2.434,1.575
				c0.572-0.43,0.859-2.29,0.572-2.863c-0.286-0.573-6.012-8.875-6.012-8.875s3.292,3.006,4.867,4.581
				c1.575,1.575,3.149,2.72,3.579,2.434c0.43-0.286,0.859-1.288,0.143-2.434s-9.734-12.883-9.734-12.883s5.583-1.288,6.585-1.718
				c1.002-0.429,3.149-2.147,3.006-3.006c-0.143-0.859-1.431-0.43-2.434,0.143c-1.002,0.573-4.008,1.002-5.01,1.002
				c-1.002,0-6.012,0-8.303,0.716c-2.29,0.716-3.436,0.859-4.008,0.859c-0.573,0-12.454-25.48-12.597-26.196
				c-0.143-0.716-5.726-30.49-7.157-35.787c-1.432-5.296-4.438-23.619-4.438-23.619"/>
			<path style="fill:#FFFFFF;stroke:#263238;stroke-miterlimit:10;" d="M255.494,269.062c0.572-0.43,0.859-2.29,0.572-2.863
				c-0.286-0.573-6.012-8.875-6.012-8.875s3.292,3.006,4.867,4.581c1.575,1.575,3.149,2.72,3.579,2.434
				c0.43-0.286,0.859-1.288,0.143-2.434s-9.734-12.883-9.734-12.883s5.583-1.288,6.585-1.718c1.002-0.429,3.149-2.147,3.006-3.006
				c-0.143-0.859-1.431-0.43-2.434,0.143c-1.002,0.573-4.008,1.002-5.01,1.002c-1.002,0-6.012,0-8.303,0.716
				c-2.29,0.716-3.436,0.859-4.008,0.859c-0.373,0-5.543-10.809-9.143-18.545c-5.339,1.676-10.236,4.572-13.344,6.659
				c5.655,6.783,16.41,17.343,16.41,17.343s3.93,6.71,4.932,7.998c1.002,1.288,2.577,4.294,4.724,6.155
				c2.147,1.861,3.579,2.72,3.579,2.72s4.008,2.434,5.153,1.575c1.145-0.859-1.002-2.147-1.002-2.147l-4.581-8.016l1.575-0.143
				l6.012,6.871C253.06,267.487,254.921,269.491,255.494,269.062z"/>
			<path style="fill:none;stroke:#263238;stroke-linecap:round;stroke-linejoin:round;stroke-miterlimit:10;" d="M247.126,269.758
				c0,0-4.534-4.929-5.914-8.28"/>
		</g>
		<ellipse style="fill:#FFFFFF;stroke:#263238;stroke-miterlimit:10;" cx="238.977" cy="86.216" rx="10.777" ry="11.697"/>
		<path style="fill:#263238;stroke:#263238;stroke-miterlimit:10;" d="M250.28,52.701c0,0-12.092,3.154-12.354,7.36
			c-0.263,4.206,0.526,9.463,0.526,12.354c0,2.891-15.772,34.698-14.72,37.326c1.051,2.629,8.411,8.937,22.08,11.303
			c13.669,2.366,23.132,4.731,36.538,0.263c13.406-4.469,23.395-10.777,23.92-16.823c0.526-6.046-11.303-30.755-16.034-37.326
			s-4.994-8.411-12.092-11.829C271.046,51.913,260.532,48.233,250.28,52.701z"/>
		<path style="fill:#FFFFFF;stroke:#263238;stroke-miterlimit:10;" d="M241.606,110.793v15.509c0,0-4.732,6.834-1.84,14.457
			c2.891,7.623,11.303,8.937,16.034,2.891c4.732-6.046,7.36-17.349,7.36-17.349l0.263-19.977L241.606,110.793z"/>
		<polygon style="fill:#263238;stroke:#263238;stroke-miterlimit:10;" points="258.34,108.091 241.876,118.895 241.606,110.793 		
			"/>
		<g>
			<path style="fill:#FFFFFF;stroke:#263238;stroke-miterlimit:10;" d="M241.08,66.896c0,0-10.252,24.183-9.2,27.6
				c1.051,3.417,2.891,16.56,6.572,17.874c3.68,1.314,23.657-2.891,26.023-4.731c2.366-1.84,8.149-12.354,8.674-14.983
				c0.526-2.629-5.52-27.863-6.572-28.652C265.526,63.216,244.76,64.004,241.08,66.896z"/>
			<path style="fill:none;stroke:#263238;stroke-linecap:round;stroke-linejoin:round;stroke-miterlimit:10;" d="M247.389,85.559
				c0,0-5.52,6.046-6.572,7.097c-1.051,1.051-0.263,3.943,1.84,3.943c2.103,0,3.68-0.263,3.68-0.263"/>
			<path style="fill:none;stroke:#263238;stroke-linecap:round;stroke-linejoin:round;stroke-miterlimit:10;" d="M237.663,95.81
				c0,0,2.103,4.206,5.52,5.257c3.417,1.052,7.886-0.526,7.886-0.526"/>
			<path style="fill:none;stroke:#263238;stroke-linecap:round;stroke-linejoin:round;stroke-miterlimit:10;" d="M255.537,87.399
				c0,0,1.051,3.943,6.309,2.891"/>
			<path style="fill:none;stroke:#263238;stroke-linecap:round;stroke-linejoin:round;stroke-miterlimit:10;" d="M240.028,80.564
				c0,0,1.577,4.731,6.309,2.366"/>
			<path style="fill:none;stroke:#263238;stroke-linecap:round;stroke-linejoin:round;stroke-miterlimit:10;" d="M259.217,81.353
				c0,0,4.994,0.789,6.309,7.097"/>
			<path style="fill:none;stroke:#263238;stroke-linecap:round;stroke-linejoin:round;stroke-miterlimit:10;" d="M249.492,77.41
				c0,0-3.68-3.943-8.674-1.577"/>
		</g>
		<g>
			<path style="fill:#FFFFFF;stroke:#263238;stroke-miterlimit:10;" d="M282.349,90.553c0,0,2.103-23.132-4.206-35.223
				c0,0,6.046,1.314,9.2,7.886c0,0,2.892,18.926-1.577,31.018L282.349,90.553z"/>
			<ellipse style="fill:#FFFFFF;stroke:#263238;stroke-miterlimit:10;" cx="279.195" cy="99.885" rx="10.777" ry="11.697"/>
			<ellipse style="fill:#FFFFFF;stroke:#263238;stroke-miterlimit:10;" cx="282.349" cy="100.673" rx="7.36" ry="7.988"/>
		</g>
		<g>
			<path style="fill:#92E3A9;stroke:#263238;stroke-miterlimit:10;" d="M286.818,127.354c3.154,0.263,10.777,2.629,13.932,11.04
				s2.103,18.663-3.154,34.96s-14.72,29.966-17.875,31.018c-3.154,1.051-13.406-33.646-13.669-34.435
				c-0.263-0.789-9.989-43.635-9.463-46.789c0.526-3.154,14.72-5.783,14.72-5.783l5.52-7.623c0,0,1.314-1.314,0.789,1.314
				s-2.629,6.572-2.629,6.572s5.783-7.331,6.571-8.149c0.789-0.817,2.366-1.051,2.366-1.051s-0.03,0.319,0.229,0.969
				c0.26,0.65-0.617,1.851-0.617,1.851s3.007-3.522,3.657-3.132c0.65,0.39,0.91,1.559,0.91,2.599c0,1.039-4.626,8.585-5.756,10.594
				c-1.13,2.009-18.282,8.636-18.282,8.636l17.494,35.261l1.051-11.303"/>
			<g>
				<path style="fill:#FFFFFF;stroke:#263238;stroke-miterlimit:10;" d="M278.379,158.793l-14.312-28.848
					c0,0,17.152-6.627,18.282-8.636c1.13-2.01,5.756-9.555,5.756-10.594c0-1.04-0.26-2.209-0.91-2.599
					c-0.65-0.39-3.657,3.132-3.657,3.132s0.877-1.201,0.617-1.851c-0.26-0.65-0.229-0.969-0.229-0.969s-1.577,0.234-2.366,1.051
					c-0.788,0.817-6.572,8.149-6.572,8.149s2.103-3.943,2.629-6.572c0.526-2.629-0.788-1.314-0.788-1.314l-5.52,7.623
					c0,0-14.194,2.629-14.72,5.783c-0.415,2.487,5.545,29.654,8.213,41.418L278.379,158.793z"/>
			</g>
			<path style="fill:none;stroke:#263238;stroke-linecap:round;stroke-linejoin:round;stroke-miterlimit:10;" d="M283.539,111.247
				c0,0-5.089,8.791-5.398,9.253"/>
			
				<line style="fill:none;stroke:#263238;stroke-linecap:round;stroke-linejoin:round;stroke-miterlimit:10;" x1="287.857" y1="110.167" x2="281.071" y2="120.5"/>
		</g>
		
			<line style="fill:none;stroke:#263238;stroke-linecap:round;stroke-linejoin:round;stroke-miterlimit:10;" x1="274.989" y1="117.628" x2="273.36" y2="118.958"/>
	</g>
</g>
<g id="Cable">
	<g>
		
			<line style="fill:none;stroke:#263238;stroke-width:4;stroke-linecap:round;stroke-linejoin:round;stroke-miterlimit:10;" x1="296.838" y1="304.062" x2="290.202" y2="304.062"/>
		<path style="fill:none;stroke:#263238;stroke-linecap:round;stroke-linejoin:round;stroke-miterlimit:10;" d="M276.829,114.352
			V348.75c0,6.938,5.624,12.562,12.562,12.562h0c6.938,0,12.562-5.624,12.562-12.562v-42.483c0-1.217-0.987-2.204-2.204-2.204
			h-2.911"/>
	</g>
</g>
<g id="Floor">
	<g>
		
			<line style="fill:none;stroke:#263238;stroke-linecap:round;stroke-linejoin:round;stroke-miterlimit:10;" x1="44.865" y1="464.271" x2="476.288" y2="464.271"/>
		
			<line style="fill:none;stroke:#263238;stroke-linecap:round;stroke-linejoin:round;stroke-miterlimit:10;" x1="12.158" y1="464.271" x2="37.906" y2="464.271"/>
	</g>
</g>
</svg>
